<svg xmlns="http://www.w3.org/2000/svg" version="1.1" xmlns:xlink="http://www.w3.org/1999/xlink"
    xmlns:svgjs="http://svgjs.com/svgjs" width="1000" height="1000">
    <rect width="1000" height="1000" rx="500" ry="500" fill="#ffffff"></rect>
    <g transform="matrix(1.7578125,0,0,1.7578125,60.40286600589752,49.99961841106415)">
        <svg xmlns="http://www.w3.org/2000/svg" version="1.1"
            xmlns:xlink="http://www.w3.org/1999/xlink" xmlns:svgjs="http://svgjs.com/svgjs"
            width="512" height="512">
            <svg width="512" height="512" viewBox="0 0 512 512" fill="none"
                xmlns="http://www.w3.org/2000/svg">
                <g clip-path="url(#clip0_152_9920)">
                    <mask id="mask0_152_9920" style="mask-type:luminance" maskUnits="userSpaceOnUse"
                        x="123" y="72" width="242" height="368">
                        <path d="M364.5 72H123V440H364.5V72Z" fill="white"></path>
                    </mask>
                    <g mask="url(#mask0_152_9920)">
                        <path fill-rule="evenodd" clip-rule="evenodd"
                            d="M132.125 227.654L289.755 81.1582C292.648 78.2547 296.082 75.9515 299.862 74.3802C303.642 72.8088 307.693 72 311.785 72C315.877 72 319.928 72.8088 323.708 74.3802C327.488 75.9515 330.922 78.2547 333.816 81.1582C336.709 84.0618 339.005 87.5087 340.57 91.3023C342.136 95.0955 342.941 99.1618 342.941 103.268C342.941 107.374 342.136 111.44 340.57 115.234C339.005 119.027 336.709 122.475 333.816 125.378C272.258 182.589 237.745 214.663 176.186 271.873C173.294 274.777 169.859 277.081 166.079 278.652C162.299 280.222 158.247 281.032 154.156 281.032C150.065 281.032 146.014 280.222 142.234 278.652C138.454 277.081 135.019 274.777 132.125 271.873C129.232 268.97 126.938 265.523 125.371 261.729C123.806 257.935 123 253.87 123 249.764C123 245.657 123.806 241.592 125.371 237.798C126.938 234.004 129.232 230.557 132.125 227.654Z"
                            fill="url(#paint0_linear_152_9920)"></path>
                        <path opacity="0.8" fill-rule="evenodd" clip-rule="evenodd"
                            d="M191.401 285.166L308.401 178.404C314.243 172.552 322.159 169.267 330.411 169.267C338.664 169.267 346.579 172.552 352.42 178.404C355.313 181.307 357.608 184.754 359.174 188.548C360.739 192.342 361.545 196.407 361.545 200.513C361.545 204.619 360.739 208.685 359.174 212.479C357.608 216.273 355.313 219.72 352.42 222.623L235.507 329.43C232.614 332.333 229.179 334.636 225.399 336.208C221.619 337.779 217.567 338.588 213.476 338.588C209.385 338.588 205.334 337.779 201.554 336.208C197.774 334.636 194.339 332.333 191.445 329.43C188.538 326.53 186.229 323.084 184.652 319.288C183.075 315.492 182.262 311.419 182.258 307.307C182.254 303.194 183.059 299.12 184.629 295.321C186.198 291.521 188.5 288.07 191.401 285.166Z"
                            fill="url(#paint1_linear_152_9920)"></path>
                        <path opacity="0.8" fill-rule="evenodd" clip-rule="evenodd"
                            d="M235.528 285.12L342.468 386.649C348.297 392.512 351.572 400.455 351.572 408.737C351.572 417.019 348.297 424.963 342.468 430.825C339.578 433.733 336.144 436.041 332.364 437.616C328.583 439.191 324.53 440.001 320.437 440.001C316.344 440.001 312.292 439.191 308.511 437.616C304.731 436.041 301.297 433.733 298.407 430.825L191.423 329.382C188.518 326.481 186.214 323.033 184.641 319.235C183.069 315.436 182.258 311.364 182.258 307.251C182.258 303.138 183.069 299.066 184.641 295.268C186.214 291.469 188.518 288.021 191.423 285.12C194.318 282.209 197.755 279.9 201.539 278.326C205.323 276.75 209.379 275.939 213.476 275.939C217.573 275.939 221.629 276.75 225.414 278.326C229.197 279.9 232.635 282.209 235.528 285.12Z"
                            fill="url(#paint2_linear_152_9920)"></path>
                    </g>
                </g>
                <defs>
                    <linearGradient id="paint0_linear_152_9920" x1="209.722" y1="397.503"
                        x2="215.858" y2="92.2261" gradientUnits="userSpaceOnUse">
                        <stop stop-color="#57EC99"></stop>
                        <stop offset="0.3333" stop-color="#1371EF"></stop>
                        <stop offset="0.6667" stop-color="#FC1CD5"></stop>
                        <stop offset="1" stop-color="#FCCC05"></stop>
                    </linearGradient>
                    <linearGradient id="paint1_linear_152_9920" x1="213.659" y1="425.259"
                        x2="212.124" y2="96.9721" gradientUnits="userSpaceOnUse">
                        <stop stop-color="#57EC99"></stop>
                        <stop offset="0.3333" stop-color="#1371EF"></stop>
                        <stop offset="0.6667" stop-color="#FC1CD5"></stop>
                        <stop offset="1" stop-color="#FCCC05"></stop>
                    </linearGradient>
                    <linearGradient id="paint2_linear_152_9920" x1="218.285" y1="422.436"
                        x2="215.217" y2="100.285" gradientUnits="userSpaceOnUse">
                        <stop stop-color="#57EC99"></stop>
                        <stop offset="0.3333" stop-color="#1371EF"></stop>
                        <stop offset="0.6667" stop-color="#FC1CD5"></stop>
                        <stop offset="1" stop-color="#FCCC05"></stop>
                    </linearGradient>
                    <clipPath id="clip0_152_9920">
                        <rect width="512" height="512" fill="white"></rect>
                    </clipPath>
                </defs>
            </svg>
        </svg>
    </g>
</svg>